<svg width="26" height="26" viewBox="0 0 26 26" fill="none" xmlns="http://www.w3.org/2000/svg">
<g clip-path="url(#clip0_10_40)">
<path d="M13 9.776C12.3624 9.776 11.739 9.96508 11.2088 10.3193C10.6787 10.6736 10.2654 11.1771 10.0214 11.7662C9.77739 12.3553 9.71355 13.0036 9.83795 13.629C9.96235 14.2544 10.2694 14.8288 10.7203 15.2797C11.1712 15.7306 11.7456 16.0377 12.371 16.1621C12.9964 16.2864 13.6447 16.2226 14.2338 15.9786C14.8229 15.7346 15.3264 15.3213 15.6807 14.7912C16.0349 14.261 16.224 13.6376 16.224 13C16.224 12.5766 16.1406 12.1574 15.9786 11.7662C15.8166 11.3751 15.5791 11.0197 15.2797 10.7203C14.9803 10.4209 14.6249 10.1834 14.2338 10.0214C13.8426 9.85939 13.4234 9.776 13 9.776ZM25.909 6.591C25.9022 5.58709 25.7173 4.59234 25.363 3.653C25.1021 2.96564 24.6983 2.34142 24.1785 1.82154C23.6586 1.30166 23.0344 0.897933 22.347 0.637C21.4077 0.282703 20.4129 0.0978392 19.409 0.0909999C17.732 -8.71718e-08 17.238 0 13 0C8.762 0 8.268 -8.71718e-08 6.591 0.0909999C5.58709 0.0978392 4.59234 0.282703 3.653 0.637C2.96564 0.897933 2.34142 1.30166 1.82154 1.82154C1.30166 2.34142 0.897933 2.96564 0.637 3.653C0.282703 4.59234 0.0978392 5.58709 0.0909999 6.591C-8.71718e-08 8.268 0 8.762 0 13C0 17.238 -8.71718e-08 17.732 0.0909999 19.409C0.104993 20.4164 0.289607 21.4142 0.637 22.36C0.896776 23.0442 1.30017 23.6648 1.82 24.18C2.33765 24.703 2.96321 25.1067 3.653 25.363C4.59234 25.7173 5.58709 25.9022 6.591 25.909C8.268 26 8.762 26 13 26C17.238 26 17.732 26 19.409 25.909C20.4129 25.9022 21.4077 25.7173 22.347 25.363C23.0368 25.1067 23.6623 24.703 24.18 24.18C24.6998 23.6648 25.1032 23.0442 25.363 22.36C25.717 21.416 25.9018 20.4171 25.909 19.409C26 17.732 26 17.238 26 13C26 8.762 26 8.268 25.909 6.591ZM22.607 16.991C22.5653 17.7932 22.3941 18.5834 22.1 19.331C21.8476 19.9546 21.4724 20.5211 20.9968 20.9968C20.5211 21.4724 19.9546 21.8476 19.331 22.1C18.5764 22.3777 17.7817 22.5313 16.978 22.555H9.022C8.21825 22.5313 7.42363 22.3777 6.669 22.1C6.02433 21.8604 5.44216 21.4782 4.966 20.982C4.49497 20.5156 4.1312 19.9522 3.9 19.331C3.62122 18.5772 3.47179 17.7816 3.458 16.978V13V9.022C3.47179 8.21837 3.62122 7.42285 3.9 6.669C4.13957 6.02433 4.52176 5.44216 5.018 4.966C5.48643 4.49751 6.04924 4.13412 6.669 3.9C7.42363 3.62233 8.21825 3.46867 9.022 3.445H16.978C17.7817 3.46867 18.5764 3.62233 19.331 3.9C19.9757 4.13957 20.5578 4.52176 21.034 5.018C21.505 5.48437 21.8688 6.04777 22.1 6.669C22.3777 7.42363 22.5313 8.21825 22.555 9.022V13C22.555 15.678 22.646 15.951 22.607 16.978V16.991ZM20.527 7.319C20.3722 6.89908 20.1282 6.51774 19.8117 6.20128C19.4953 5.88482 19.1139 5.64078 18.694 5.486C18.1174 5.28614 17.5101 5.18933 16.9 5.2H9.1C8.48675 5.20599 7.87939 5.32042 7.306 5.538C6.89251 5.68575 6.5152 5.91983 6.19916 6.22466C5.88312 6.5295 5.63558 6.89811 5.473 7.306C5.28421 7.88498 5.19198 8.49107 5.2 9.1V16.9C5.21289 17.5126 5.3271 18.1187 5.538 18.694C5.69278 19.1139 5.93682 19.4953 6.25328 19.8117C6.56974 20.1282 6.95108 20.3722 7.371 20.527C7.92567 20.731 8.50935 20.8451 9.1 20.865H16.9C17.5133 20.859 18.1206 20.7446 18.694 20.527C19.1139 20.3722 19.4953 20.1282 19.8117 19.8117C20.1282 19.4953 20.3722 19.1139 20.527 18.694C20.7446 18.1206 20.859 17.5133 20.865 16.9V13V9.1C20.8654 8.48614 20.7507 7.87764 20.527 7.306V7.319ZM13 17.966C12.3485 17.966 11.7033 17.8375 11.1016 17.5877C10.4998 17.338 9.95319 16.972 9.4931 16.5107C9.033 16.0494 8.66843 15.5019 8.42029 14.8994C8.17214 14.297 8.04529 13.6515 8.047 13C8.047 12.0173 8.33858 11.0566 8.88483 10.2397C9.43108 9.42276 10.2074 8.78626 11.1156 8.41078C12.0238 8.0353 13.0229 7.93772 13.9866 8.13039C14.9503 8.32306 15.8351 8.79732 16.5291 9.49313C17.2231 10.1889 17.695 11.075 17.8852 12.0392C18.0753 13.0033 17.9751 14.0022 17.5972 14.9094C17.2194 15.8166 16.5809 16.5913 15.7625 17.1354C14.9441 17.6795 13.9827 17.9686 13 17.966ZM18.2 9.009C17.9126 8.97858 17.6467 8.84289 17.4534 8.62806C17.2601 8.41324 17.1532 8.13448 17.1532 7.8455C17.1532 7.55652 17.2601 7.27776 17.4534 7.06294C17.6467 6.84811 17.9126 6.71242 18.2 6.682C18.4874 6.71242 18.7533 6.84811 18.9466 7.06294C19.1399 7.27776 19.2468 7.55652 19.2468 7.8455C19.2468 8.13448 19.1399 8.41324 18.9466 8.62806C18.7533 8.84289 18.4874 8.97858 18.2 9.009Z" fill="white"/>
</g>
<defs>
<clipPath id="clip0_10_40">
<rect width="26" height="26" fill="white"/>
</clipPath>
</defs>
</svg>
